# xmcd CD database file
#
# Track frame offsets:
#	150
#	26711
#	80220
#	96820
#	140920
#	185071
#	217789
#
# Disc length: 3274 seconds
#
# Revision: 0
# Processed by: cddbd v1.5.2PL0 Copyright (c) Steve Scherf et al.
# Submitted via: CDex 1.70beta2
#
DISCID=650cc807
DTITLE=Various Artist - Jazz im Gärtnerplatz [CD2]
DYEAR=2001
DGENRE=Jazz
TTITLE0=Dado Moroni Trio - Straight no chaser
TTITLE1=Johannes Faber Unlimited - St.Luis Blues
TTITLE2=Johannes Faber Unlimited - Amona
TTITLE3=Johannes Faber Unlimited - Shit or get off the pot
TTITLE4=Benny Bailey-Jo Haider - Quarters and dimes
TTITLE5=Benny Bailey-Jo Haider - Blood Count
TTITLE6=Benny Bailey-Jo Haider - Home
EXTD=YEAR: 2001
EXTT0=
EXTT1=
EXTT2=
EXTT3=
EXTT4=
EXTT5=
EXTT6=
PLAYORDER=
